<?xml version="1.0" standalone="no"?>
<!DOCTYPE svg PUBLIC "-//W3C//DTD SVG 1.1//EN" "http://www.w3.org/Graphics/SVG/1.1/DTD/svg11.dtd" >
<svg xmlns="http://www.w3.org/2000/svg">
<metadata>
This is a custom SVG webfont generated by Font Squirrel.
Copyright   : 251 Dutch Design Albert Jan Pool 1995 Published by FontShop International FontFont release 15
</metadata>
<defs>
<font id="DINbekBold" horiz-adv-x="1167" >
<font-face units-per-em="2048" ascent="1638" descent="-410" />
<missing-glyph horiz-adv-x="497" />
<glyph unicode=" "  horiz-adv-x="497" />
<glyph unicode="&#x09;" horiz-adv-x="497" />
<glyph unicode="&#xa0;" horiz-adv-x="497" />
<glyph unicode="!" horiz-adv-x="745" d="M242 1532h344l-68 -1053h-211zM264 0v287h297v-287h-297z" />
<glyph unicode="&#x22;" horiz-adv-x="997" d="M145 1077v455h265v-455h-265zM590 1077v455h260v-455h-260z" />
<glyph unicode="#" horiz-adv-x="1484" d="M129 410v262h190l35 231h-149v260h190l62 381h293l-60 -381h250l59 381h293l-57 -381h147v-260h-190l-35 -231h148v-262h-191l-65 -410h-293l65 410h-250l-63 -410h-295l63 410h-147zM612 672h250l35 231h-248z" />
<glyph unicode="$" horiz-adv-x="1329" d="M41 188l192 195q129 -129 342 -129v389l-67 8q-190 25 -299 132.5t-109 295.5q0 186 120 312.5t329 148.5v193h217v-191q125 0 231.5 -46t192.5 -130l-191 -188q-49 47 -116.5 75.5t-147.5 28.5v-375l82 -12q199 -33 293 -121q119 -113 119 -323q0 -188 -131 -314 q-123 -117 -332 -141v-242h-217v234q-158 0 -283 50t-225 150zM389 1090q0 -63 46 -109.5t140 -60.5v360q-186 -26 -186 -190zM735 258q201 25 201 184q0 84 -47 129q-37 37 -154 58v-371z" />
<glyph unicode="%" horiz-adv-x="1822" d="M113 1036v213q0 139 89 217t222 78q131 0 221 -77.5t90 -217.5v-213q0 -135 -89 -215t-222 -80q-135 0 -223 78t-88 217zM313 1044q0 -123 111 -122q109 0 108 122v197q0 123 -108 123q-111 0 -111 -123v-197zM440 0l725 1532h219l-725 -1532h-219zM1087 283v213 q0 139 89.5 215.5t224.5 76.5q131 0 221 -76.5t90 -215.5v-213q0 -137 -89 -216t-222 -79q-137 0 -225.5 77t-88.5 218zM1290 291q0 -123 111 -123q109 0 108 123v194q0 123 -108 123q-111 0 -111 -123v-194z" />
<glyph unicode="&#x26;" horiz-adv-x="1550" d="M129 451q0 227 274 411q-74 86 -112.5 168t-38.5 158q0 156 110.5 256t296.5 100q182 0 287 -101.5t105 -258.5q0 -152 -156 -269l-111 -79l258 -306q37 47 57.5 116t20.5 155h264q0 -154 -40.5 -269.5t-122.5 -205.5l276 -326h-354l-113 133q-41 -33 -78 -55 q-25 -18 -63 -39q-111 -51 -254 -51q-246 0 -376 122t-130 341zM399 457q0 -96 66.5 -155.5t167.5 -59.5q121 0 227 90l-305 358q-156 -106 -156 -233zM532 1180q0 -51 103 -172l63 43q88 59 88 129q0 53 -32.5 89t-94.5 36q-127 0 -127 -125z" />
<glyph unicode="'" horiz-adv-x="555" d="M145 1077v455h267v-455h-267z" />
<glyph unicode="(" horiz-adv-x="720" d="M172 297v938q0 184 55 276q45 78 191 222l186 -187l-67 -69q-29 -31 -54 -74q-33 -57 -32 -182v-912q0 -123 33.5 -180t119.5 -143l-186 -189l-105 107q-47 53 -86 114q-55 101 -55 279z" />
<glyph unicode=")" horiz-adv-x="720" d="M117 -12l65 65q31 33 56 76q31 55 30 180v912q0 121 -30.5 177t-120.5 146l188 189l105 -105q47 -53 86 -117q55 -98 55 -276v-938q0 -184 -55 -279q-47 -76 -191 -221z" />
<glyph unicode="*" horiz-adv-x="1060" d="M119 989l235 125l-235 125l96 172l227 -145l-10 270h199l-10 -270l227 145l98 -172l-239 -125l239 -125l-98 -170l-227 142l10 -269h-199l10 269l-227 -142z" />
<glyph unicode="+" d="M106 465v262h349v344h262v-344h344v-262h-344v-344h-262v344h-349z" />
<glyph unicode="," horiz-adv-x="598" d="M145 305h310v-424l-310 -235v659z" />
<glyph unicode="-" horiz-adv-x="915" d="M127 483v260h661v-260h-661z" />
<glyph unicode="." horiz-adv-x="612" d="M145 0v317h322v-317h-322z" />
<glyph unicode="/" horiz-adv-x="866" d="M0 -160l612 1850h262l-612 -1850h-262z" />
<glyph unicode="0" d="M119 442v645q0 211 139 338q131 119 328 119q193 0 328 -123t135 -334v-645q0 -209 -134.5 -331.5t-328.5 -122.5q-195 0 -328 116q-139 127 -139 338zM397 444q0 -92 52.5 -148t136.5 -56t134 55t50 149v639q0 94 -50 151.5t-134 57.5t-136.5 -57t-52.5 -152v-639z" />
<glyph unicode="1" d="M221 958v302l311 272h281v-1532h-281v1231z" />
<glyph unicode="2" d="M127 0v252l571 663q80 92 80 187q0 86 -48 138t-136 52q-188 0 -188 -194h-279q0 201 135 327q66 57 146.5 88t185.5 31q209 0 337 -120.5t128 -323.5q0 -106 -43 -187q-31 -61 -121 -165l-428 -496h592v-252h-932z" />
<glyph unicode="3" d="M90 438h281q0 -94 63 -149q55 -49 144 -49q94 0 150 55t56 156q0 96 -56 153.5t-159 57.5h-41v243h41q195 0 195 193q0 90 -53.5 142t-135.5 52q-76 0 -132 -50t-56 -134h-281q0 197 137.5 316.5t331.5 119.5q203 0 335 -124t132 -314q0 -217 -176 -315 q199 -102 199 -349q0 -219 -145 -342q-133 -113 -342 -112q-203 0 -334 104q-154 123 -154 346z" />
<glyph unicode="4" d="M68 217v264l524 1051h305l-524 -1051h319v287h269v-287h141v-264h-141v-217h-269v217h-624z" />
<glyph unicode="5" d="M123 428h278q25 -188 189 -188q84 0 133 49q59 59 59 227q0 274 -186 275q-139 0 -184 -123h-256v864h872v-252h-618v-330q80 78 229 78q178 0 287 -102q137 -139 137 -410q0 -135 -27.5 -229t-107.5 -174q-125 -125 -338 -125q-219 0 -342 123q-107 104 -125 317z" />
<glyph unicode="6" d="M102 461q0 139 129 407l324 664h305l-317 -633q45 18 112 19q162 0 283 -124t121 -329q0 -217 -135.5 -347t-341.5 -130q-205 0 -342.5 127t-137.5 346zM383 463q0 -104 54.5 -163.5t144.5 -59.5q88 0 142 59t54 164q0 102 -55 160q-51 63 -141 63q-86 0 -146 -59 q-53 -62 -53 -164z" />
<glyph unicode="7" d="M106 1038v494h975v-252l-495 -1280h-303l495 1280h-403v-242h-269z" />
<glyph unicode="8" d="M94 444q0 217 193 344q-172 121 -172 320q0 195 139 319q133 117 332 117q195 0 331 -120.5t136 -315.5q0 -199 -172 -320q195 -129 194 -344q0 -211 -143 -340q-137 -117 -346 -116q-213 0 -346 116q-146 125 -146 340zM375 449q0 -88 59 -150q66 -59 152 -59 q88 0 148.5 60t60.5 149q0 88 -62 151q-57 61 -147 62q-88 0 -149.5 -63.5t-61.5 -149.5zM393 1100q0 -84 53 -142q59 -53 140 -53q82 0 135 56.5t53 138.5q0 80 -52 136t-136 56q-82 0 -137.5 -57t-55.5 -135z" />
<glyph unicode="9" d="M111 1067q0 217 137 352q131 125 340 125q203 0 340 -127t137 -346q0 -76 -30.5 -176t-96.5 -233l-326 -662h-303l320 633q-45 -20 -115 -21q-162 0 -281 121q-122 131 -122 334zM389 1069q0 -102 55.5 -162.5t143.5 -60.5t142 59.5t54 163.5q0 53 -12 92t-43 72 q-53 59 -141 59q-86 0 -146 -59q-53 -62 -53 -164z" />
<glyph unicode=":" horiz-adv-x="663" d="M201 0v317h317v-317h-317zM201 584v317h317v-317h-317z" />
<glyph unicode=";" horiz-adv-x="663" d="M201 584v317h317v-317h-317zM207 305h305v-424l-305 -235v659z" />
<glyph unicode="&#x3c;" horiz-adv-x="2207" d="M106 612l830 830h352l-700 -697h1511v-264h-1511l700 -696h-352z" />
<glyph unicode="=" d="M106 250v262h955v-262h-955zM106 717v262h955v-262h-955z" />
<glyph unicode="&#x3e;" horiz-adv-x="2207" d="M106 481v264h1516l-702 697h354l827 -830l-827 -827h-354l702 696h-1516z" />
<glyph unicode="?" horiz-adv-x="1124" d="M141 1114q0 195 133 316q63 59 139 86.5t181 27.5q190 0 317 -112q135 -121 136 -318q0 -129 -105 -268l-160 -211q-39 -51 -39 -111v-45h-278v66q0 115 82 223l158 205q63 78 63 143q0 78 -46 127t-128 49q-78 0 -125 -50t-47 -128h-281zM457 0v287h297v-287h-297z" />
<glyph unicode="@" horiz-adv-x="1628" d="M123 358v643q0 272 132 405.5t404 133.5h312q270 0 402 -131t132 -408v-1007l-260 6v98q-106 -111 -258 -110q-170 0 -270 106q-63 70 -88 191q-14 68 -15 213q0 139 16.5 231t84.5 166q96 109 270 109q154 0 254 -105v96q0 143 -76 219t-215 76h-266q-139 0 -215 -75.5 t-76 -219.5v-620q0 -78 20.5 -123t73.5 -90l-192 -195q-92 84 -131 166t-39 225zM885 498q0 -279 176 -279q178 0 178 279q0 274 -178 274q-176 0 -176 -274z" />
<glyph unicode="A" horiz-adv-x="1370" d="M10 0l557 1532h236l559 -1532h-313l-91 270h-542l-92 -270h-314zM500 522h379l-187 557z" />
<glyph unicode="B" horiz-adv-x="1413" d="M178 0v1532h615q219 0 346 -117t127 -313q0 -115 -64 -209q-49 -70 -125 -109q211 -96 211 -344q0 -203 -129 -321.5t-340 -118.5h-641zM477 266h311q98 0 149.5 53.5t51.5 137.5q0 76 -52 131t-149 55h-311v-377zM477 911h293q92 0 144.5 48.5t52.5 127.5 q0 76 -52.5 126.5t-144.5 50.5h-293v-353z" />
<glyph unicode="C" horiz-adv-x="1333" d="M127 766q0 260 16 346q31 164 133 264q168 168 414 168q219 0 370.5 -123t192.5 -360h-303q-51 217 -258 217q-135 0 -209 -102q-57 -82 -57 -410v-138q0 -54 4 -85q12 -141 72 -209q72 -80 190 -80q205 0 258 217h303q-39 -231 -194 -360q-150 -123 -369 -123 q-246 0 -414 168q-100 100 -133 264q-8 47 -12 128t-4 218z" />
<glyph unicode="D" horiz-adv-x="1415" d="M178 0v1532h553q258 0 404 -148q115 -111 143 -282q12 -78 12 -330q0 -254 -12 -336q-27 -174 -143 -291q-145 -145 -404 -145h-553zM477 266h225q145 0 226 94q35 49 53 146q10 86 10 266v45v37v27v24q0 88 -10 127q-14 88 -53 137q-78 94 -226 95h-225v-998z" />
<glyph unicode="E" horiz-adv-x="1300" d="M178 0v1532h1010v-268h-711v-359h604v-266h-604v-373h711v-266h-1010z" />
<glyph unicode="F" horiz-adv-x="1267" d="M178 0v1532h1010v-268h-711v-375h604v-268h-604v-621h-299z" />
<glyph unicode="G" horiz-adv-x="1392" d="M127 766q0 260 16 346q31 164 133 264q168 168 414 168q248 0 408 -149q133 -125 168 -342h-301q-51 225 -275 225q-117 0 -190 -82q-53 -63 -70 -207l-4 -223q0 -197 5 -249t20.5 -99t48.5 -84q72 -80 190 -80q135 0 213 86q70 76 70 205v57h-283v250h580v-223 q0 -315 -148 -467q-168 -174 -432 -174q-246 0 -414 168q-100 100 -133 264q-8 47 -12 128t-4 218z" />
<glyph unicode="H" horiz-adv-x="1472" d="M178 0v1532h299v-627h518v627h299v-1532h-299v641h-518v-641h-299z" />
<glyph unicode="I" horiz-adv-x="655" d="M178 0v1532h299v-1532h-299z" />
<glyph unicode="J" horiz-adv-x="1097" d="M6 143l199 197q86 -86 194 -86q242 0 242 262v1016h299v-1028q0 -242 -164 -385q-150 -131 -377 -131q-235 -1 -393 155z" />
<glyph unicode="K" horiz-adv-x="1429" d="M178 0v1532h299v-668l541 668h362l-508 -610l545 -922h-348l-393 696l-199 -235v-461h-299z" />
<glyph unicode="L" horiz-adv-x="1234" d="M178 0v1532h299v-1266h694v-266h-993z" />
<glyph unicode="M" horiz-adv-x="1742" d="M178 0v1532h295l399 -830l400 830h293v-1532h-299v893l-291 -582h-203l-295 582v-893h-299z" />
<glyph unicode="N" horiz-adv-x="1527" d="M178 0v1532h266l607 -938v938h299v-1532h-267l-606 940v-940h-299z" />
<glyph unicode="O" horiz-adv-x="1384" d="M127 766q0 260 16 346q31 164 133 264q168 168 416 168q246 0 414 -168q100 -100 133 -264q18 -96 18 -346q0 -246 -18 -346q-27 -162 -133 -264q-168 -168 -414 -168q-244 0 -416 168q-100 100 -133 264q-8 47 -12 128t-4 218zM426 766q0 -197 4 -223q12 -145 70 -207 q70 -82 192 -82q131 0 209 102q57 78 57 410v111q0 70 -4 112q-12 141 -69 207q-72 82 -193 82t-192 -82q-53 -63 -70 -207z" />
<glyph unicode="P" horiz-adv-x="1349" d="M178 0v1532h594q225 0 373 -143q133 -133 133 -336q0 -201 -133 -334q-143 -143 -373 -144h-295v-575h-299zM477 846h281q102 0 161.5 57.5t59.5 149.5q0 94 -59.5 152.5t-161.5 58.5h-281v-418z" />
<glyph unicode="Q" horiz-adv-x="1382" d="M127 766q0 260 16 346q31 164 133 264q168 168 416 168q246 0 414 -168q100 -100 133 -264q18 -96 18 -346v-53v-43v-35v-29q0 -47 -2 -84t-8 -59q-18 -143 -84 -240l131 -131l-157 -158l-136 138q-129 -84 -309 -84q-244 0 -416 168q-100 100 -133 264q-8 47 -12 128 t-4 218zM426 766q0 -197 4 -223q12 -145 70 -207q70 -82 192 -82q57 0 99 29l-134 131l160 155l115 -112q27 84 26 309v111q0 70 -4 112q-12 141 -69 207q-72 82 -193 82t-192 -82q-53 -63 -70 -207z" />
<glyph unicode="R" horiz-adv-x="1404" d="M178 0v1532h600q225 0 367 -139q131 -131 131 -330q0 -150 -84 -262q-74 -96 -197 -142l342 -659h-346l-299 610h-215v-610h-299zM477 860h283q98 0 157.5 56.5t59.5 146.5q0 88 -60.5 144.5t-156.5 56.5h-283v-404z" />
<glyph unicode="S" horiz-adv-x="1269" d="M41 188l192 195q129 -129 371 -129q270 0 270 188q0 82 -45 127q-43 39 -137 58l-184 24q-408 55 -408 428q0 207 143.5 336t391.5 129q309 0 493 -178l-188 -188q-113 106 -313 106q-115 0 -176.5 -55t-61.5 -139q0 -63 48 -109.5t138 -60.5l183 -25q193 -27 291 -119 q119 -113 118 -325q0 -213 -159.5 -338t-407.5 -125q-356 -1 -559 200z" />
<glyph unicode="T" horiz-adv-x="1226" d="M66 1264v268h1097v-268h-399v-1264h-299v1264h-399z" />
<glyph unicode="U" horiz-adv-x="1435" d="M156 524v1008h299v-997q0 -129 70.5 -205t193.5 -76q125 0 195.5 76t70.5 205v997h297v-1008q0 -236 -162 -386t-401 -150q-238 0 -400.5 148t-162.5 388z" />
<glyph unicode="V" horiz-adv-x="1249" d="M6 1532h309l308 -1000l309 1000h311l-508 -1532h-223z" />
<glyph unicode="W" horiz-adv-x="1906" d="M12 1532h314l235 -967l281 967h223l278 -967l240 967h311l-411 -1532h-248l-283 930l-280 -930h-250z" />
<glyph unicode="X" horiz-adv-x="1296" d="M10 0l475 784l-444 748h340l266 -496l268 496h338l-444 -748l477 -784h-342l-297 532l-295 -532h-342z" />
<glyph unicode="Y" horiz-adv-x="1228" d="M6 1532h326l284 -619l283 619h324l-459 -903v-629h-297v629z" />
<glyph unicode="Z" horiz-adv-x="1177" d="M86 0v242l653 1022h-624v268h977v-238l-656 -1028h656v-266h-1006z" />
<glyph unicode="[" horiz-adv-x="811" d="M172 -160v1850h553v-252h-274v-1346h274v-252h-553z" />
<glyph unicode="\" horiz-adv-x="866" d="M0 1663h262l604 -1823h-262z" />
<glyph unicode="]" horiz-adv-x="811" d="M90 90h272v1352h-272v248h553v-1850h-553v250z" />
<glyph unicode="^" horiz-adv-x="1294" d="M135 836l383 710h258l383 -710h-293l-219 405l-219 -405h-293z" />
<glyph unicode="_" horiz-adv-x="1294" d="M0 -197h1294v-186h-1294v186z" />
<glyph unicode="`" horiz-adv-x="1075" d="M223 1665h295l137 -367h-186z" />
<glyph unicode="a" horiz-adv-x="1146" d="M78 340q0 141 97 232.5t286 91.5h264v57q0 176 -209 176q-135 0 -215 -92l-178 174q78 88 168 121t235 33q477 0 478 -396v-737h-273v96q-109 -106 -274 -106q-188 0 -283.5 97t-95.5 253zM346 346q0 -129 162 -129q139 0 190 72q27 39 27 125v59h-221q-158 0 -158 -127z " />
<glyph unicode="b" horiz-adv-x="1204" d="M158 0v1532h278v-510q100 111 271 111q172 0 274 -101q72 -74 98 -215q6 -41 10.5 -105.5t4.5 -150.5q0 -176 -15 -258q-20 -137 -98 -215q-102 -100 -274 -100q-170 0 -279 116v-104h-270zM436 561q0 -152 25 -213q43 -109 166 -108q119 0 164 108q25 68 24 213 q0 154 -24 213q-43 106 -164 107q-121 0 -166 -107q-25 -68 -25 -213z" />
<glyph unicode="c" horiz-adv-x="1032" d="M100 561q0 303 168 457q129 115 334 115q225 0 371 -150l-191 -190q-82 88 -180 88t-159.5 -76t-61.5 -244q0 -172 61.5 -246.5t159.5 -74.5t180 88l191 -189q-147 -152 -371 -151q-201 0 -334 114q-168 150 -168 459z" />
<glyph unicode="d" horiz-adv-x="1206" d="M111 561q0 172 14 256q23 139 98 215q102 100 275 101q170 0 272 -111v510h279v-1532h-273v104q-104 -117 -276 -116q-174 0 -277 100q-72 74 -98 215q-6 43 -10 106.5t-4 151.5zM389 561q0 -152 25 -213q43 -109 164 -108q115 0 159 92q33 70 33 229q0 158 -33 227 q-43 92 -159 93q-119 0 -164 -107q-25 -68 -25 -213z" />
<glyph unicode="e" horiz-adv-x="1177" d="M100 561q0 264 138 424q127 147 352 148q227 0 360 -152q127 -147 127 -383v-125h-700q0 -111 64.5 -180.5t179.5 -69.5q150 0 253 107l170 -166q-88 -88 -184 -132t-242 -44q-518 0 -518 573zM377 664h426q0 66 -27 120q-51 117 -186 117t-189 -117q-24 -57 -24 -120z " />
<glyph unicode="f" horiz-adv-x="735" d="M76 874v213h114v142q0 129 78 219q90 100 250 100h160v-237h-111q-96 0 -96 -101v-123h207v-213h-207v-874h-281v874h-114z" />
<glyph unicode="g" horiz-adv-x="1191" d="M111 592q0 178 20.5 273.5t91.5 168.5q100 98 269 99q168 0 274 -117v104h270v-1079q0 -201 -135 -333t-356 -132q-254 0 -408 148l174 176q90 -86 219 -86q117 0 177 71q51 63 51 160v115q-102 -113 -269 -113q-166 0 -266 98q-70 72 -96 191q-16 90 -16 256zM389 592 q0 -141 31 -203q39 -90 151 -90q115 0 158 96q29 72 29 197q0 131 -29 192q-39 96 -158 97q-106 0 -151 -90q-31 -64 -31 -199z" />
<glyph unicode="h" horiz-adv-x="1222" d="M158 0v1532h278v-514q115 115 269 115q176 0 280 -115q47 -57 70.5 -128t23.5 -165v-725h-278v684q0 102 -60 156q-49 41 -125 41t-120 -41q-59 -53 -60 -156v-684h-278z" />
<glyph unicode="i" horiz-adv-x="589" d="M154 1311v229h284v-229h-284zM158 0v1120h278v-1120h-278z" />
<glyph unicode="j" horiz-adv-x="589" d="M-49 -182h106q100 0 101 100v1202h278v-1218q0 -129 -78 -219q-88 -102 -247 -103h-160v238zM154 1311v229h284v-229h-284z" />
<glyph unicode="k" horiz-adv-x="1200" d="M158 0v1532h278v-870l373 458h338l-402 -450l431 -670h-347l-274 467l-119 -133v-334h-278z" />
<glyph unicode="l" horiz-adv-x="698" d="M145 319v1213h281v-1194q0 -100 98 -100h109v-238h-160q-162 0 -250 100q-78 88 -78 219z" />
<glyph unicode="m" horiz-adv-x="1882" d="M158 0v1120h272v-102q111 115 279 115q195 0 297 -142q137 141 335 142q174 0 277 -99q121 -123 121 -317v-717h-279v678q0 100 -59 158q-51 45 -125 45q-76 0 -125 -41q-63 -53 -64 -156v-684h-278v678q0 100 -61 158q-49 45 -125 45q-74 0 -125 -45q-31 -25 -46.5 -64 t-15.5 -94v-678h-278z" />
<glyph unicode="n" horiz-adv-x="1230" d="M158 0v1120h272v-102q111 115 279 115q166 0 266 -99q113 -115 112 -317v-717h-278v678q0 100 -61 158q-49 45 -125 45q-74 0 -125 -45q-31 -25 -46.5 -64t-15.5 -94v-678h-278z" />
<glyph unicode="o" d="M111 561q0 297 129 434.5t344 137.5q211 0 343 -135.5t132 -436.5q0 -160 -26.5 -260t-100.5 -176q-131 -137 -348 -137q-211 0 -346 137q-70 72 -98.5 173t-28.5 263zM389 561q0 -205 66 -272q49 -49 129 -49t131 49q63 63 63 272q0 207 -63 270q-51 49 -131 50 q-80 0 -129 -50q-66 -63 -66 -270z" />
<glyph unicode="p" horiz-adv-x="1204" d="M158 -412v1532h270v-104q106 117 279 117q172 0 274 -101q72 -74 98 -215q6 -41 10.5 -105.5t4.5 -150.5q0 -176 -15 -258q-20 -137 -98 -215q-102 -100 -274 -100q-166 0 -271 110v-510h-278zM436 561q0 -152 25 -213q43 -109 166 -108q119 0 164 108q25 68 24 213 q0 154 -24 213q-43 106 -164 107q-121 0 -166 -107q-25 -68 -25 -213z" />
<glyph unicode="q" horiz-adv-x="1206" d="M111 561q0 172 14 256q23 139 98 215q102 100 277 101q172 0 276 -117v104h273v-1532h-279v510q-100 -111 -272 -110q-172 0 -275 100q-72 74 -98 215q-6 43 -10 106.5t-4 151.5zM389 561q0 -152 25 -213q43 -109 164 -108q115 0 159 92q33 70 33 229q0 158 -33 227 q-43 92 -159 93q-119 0 -164 -107q-25 -68 -25 -213z" />
<glyph unicode="r" horiz-adv-x="976" d="M158 0v1120h272v-106q100 119 283 119q158 0 264 -105l-211 -213q-68 66 -150 66q-72 0 -120 -50q-59 -57 -60 -155v-676h-278z" />
<glyph unicode="s" horiz-adv-x="1077" d="M47 147l182 185q106 -106 299 -107q199 0 199 117q0 90 -119 102l-176 19q-328 33 -328 313q0 168 134 266q119 90 299 91q289 0 428 -132l-172 -174q-86 76 -261 76q-158 0 -157 -108q0 -82 114 -97l179 -16q332 -33 331 -330q0 -176 -137 -274q-129 -90 -338 -90 q-156 0 -256 26q-63 20 -116.5 51t-104.5 82z" />
<glyph unicode="t" horiz-adv-x="755" d="M66 874v213h116v332h281v-332h196v-213h-196v-536q0 -100 96 -100h100v-238h-151q-160 0 -248 100q-78 88 -78 219v555h-116z" />
<glyph unicode="u" horiz-adv-x="1230" d="M143 403v717h281v-678q0 -100 59 -157q49 -45 125 -45t127 45q31 25 45.5 63.5t14.5 93.5v678h280v-1120h-272v102q-111 -115 -281 -114q-166 0 -264 98q-115 114 -115 317z" />
<glyph unicode="v" horiz-adv-x="1058" d="M8 1120h295l227 -692l228 692h293l-410 -1120h-219z" />
<glyph unicode="w" horiz-adv-x="1630" d="M8 1120h297l180 -692l230 692h203l231 -692l180 692h295l-342 -1120h-231l-234 702l-233 -702h-232z" />
<glyph unicode="x" horiz-adv-x="1132" d="M27 0l387 571l-373 549h336l188 -319l193 319h334l-371 -549l387 -571h-336l-207 336l-205 -336h-333z" />
<glyph unicode="y" horiz-adv-x="1060" d="M8 1120h295l232 -692l225 692h293l-480 -1300q-31 -92 -84 -146q-43 -43 -100 -64.5t-139 -21.5h-111v252h66q61 0 87.5 19.5t51.5 83.5l47 137z" />
<glyph unicode="z" horiz-adv-x="1026" d="M80 0v213l495 655h-469v252h828v-213l-504 -655h504v-252h-854z" />
<glyph unicode="{" horiz-adv-x="980" d="M92 641v250h98q72 0 111 38t39 132v311q0 147 90 238q80 80 242 80h219v-252h-115q-94 0 -123 -29q-35 -39 -35 -137v-291q0 -154 -147 -215q147 -59 147 -215v-291q0 -139 76 -162q27 -6 82 -6h115v-252h-219q-162 0 -242 80q-90 90 -90 240v311q0 88 -39 129t-111 41 h-98z" />
<glyph unicode="|" horiz-adv-x="751" d="M238 -160v1850h278v-1850h-278z" />
<glyph unicode="}" horiz-adv-x="980" d="M92 92h115q92 0 123.5 33t31.5 135v291q0 152 150 215q-150 57 -150 215v291q0 139 -73 160q-27 6 -82 6h-115v252h219q162 0 242 -80q90 -90 90 -238v-311q0 -88 39 -129t109 -41h100v-250h-100q-70 0 -109 -39t-39 -131v-311q0 -150 -90 -240q-80 -80 -242 -80h-219 v252z" />
<glyph unicode="~" horiz-adv-x="1302" d="M80 631q102 102 181 143t171 41q115 0 252 -74q96 -51 174 -51q96 0 186 90l179 -176q-96 -96 -181 -143q-82 -41 -174 -41q-113 0 -252 72q-96 53 -176 53q-90 0 -184 -90z" />
<glyph unicode="&#xa2;" horiz-adv-x="1071" d="M100 786q0 242 115 388q102 135 285 174v184h217v-184q164 -27 291 -160l-185 -182q-61 66 -137 88v-615q74 20 137 88l185 -180q-121 -129 -291 -162v-225h-217v225q-176 37 -285 174q-115 151 -115 387zM381 786q0 -160 65 -245q31 -41 82 -58v607q-45 -12 -82 -56 q-65 -84 -65 -248z" />
<glyph unicode="&#xa3;" horiz-adv-x="1243" d="M86 639v215h131v174q0 242 164 385q150 131 377 131q231 0 391 -158l-197 -194q-86 86 -194 86q-244 0 -244 -262v-162h244v-215h-244v-373h635v-266h-932v639h-131z" />
<glyph unicode="&#xa5;" horiz-adv-x="1226" d="M6 1532h326l282 -621l285 621h322l-291 -582h157v-215h-268l-55 -106v-111h323v-215h-323v-303h-297v303h-328v215h328v111l-55 106h-273v215h162z" />
<glyph unicode="&#xa8;" horiz-adv-x="1075" d="M180 1303v270h240v-270h-240zM655 1303v270h240v-270h-240z" />
<glyph unicode="&#xa9;" horiz-adv-x="1814" d="M129 766q0 322 228.5 550t549.5 228q324 0 551.5 -228.5t227.5 -549.5q0 -324 -227.5 -551t-551.5 -227q-322 0 -550 227t-228 551zM313 766q0 -260 171 -432t423 -172t422 174t170 430q0 258 -169 431t-423 173q-250 0 -422 -174t-172 -430zM537 766q0 201 108.5 312.5 t276.5 111.5q156 0 284 -115l-121 -121q-82 70 -163 70q-201 0 -201 -258t201 -258q82 0 163 67l121 -118q-125 -113 -284 -113q-166 0 -273 107q-112 116 -112 315z" />
<glyph unicode="&#xab;" horiz-adv-x="1349" d="M74 592l534 532v-333l-202 -199l202 -201v-334zM672 592l536 532v-333l-207 -199l207 -201v-334z" />
<glyph unicode="&#xad;" horiz-adv-x="915" d="M127 483v260h661v-260h-661z" />
<glyph unicode="&#xae;" horiz-adv-x="1814" d="M129 766q0 322 228.5 550t549.5 228q324 0 551.5 -228.5t227.5 -549.5q0 -324 -227.5 -551t-551.5 -227q-322 0 -550 227t-228 551zM313 766q0 -260 171 -432t423 -172t423 174t171 430q0 258 -170 431t-424 173q-250 0 -422 -174t-172 -430zM623 352v828h338 q121 0 198.5 -76t77.5 -184q0 -154 -154 -220l174 -348h-210l-150 322h-88v-322h-186zM809 813h129q49 0 81 30.5t32 76.5q0 43 -32 75.5t-81 32.5h-129v-215z" />
<glyph unicode="&#xb4;" horiz-adv-x="1075" d="M420 1298l137 367h295l-246 -367h-186z" />
<glyph unicode="&#xb8;" horiz-adv-x="1075" d="M344 -442l148 313h206l-94 -313h-260z" />
<glyph unicode="&#xbb;" horiz-adv-x="1349" d="M143 57v334l205 201l-205 199v333l537 -532zM741 57v334l203 201l-203 199v333l539 -532z" />
<glyph unicode="&#xc2;" horiz-adv-x="1370" d="M10 0l557 1532h236l559 -1532h-313l-91 270h-542l-92 -270h-314zM500 522h379l-187 557zM284 1679l285 365h223l285 -365h-217l-180 197l-179 -197h-217z" />
<glyph unicode="&#xc7;" horiz-adv-x="1333" d="M127 766q0 260 16 346q31 164 133 264q168 168 414 168q219 0 370.5 -123t192.5 -360h-303q-51 217 -258 217q-135 0 -209 -102q-57 -82 -57 -410v-138q0 -54 4 -85q12 -141 72 -209q72 -80 190 -80q205 0 258 217h301q-63 -383 -407 -467v-244h-281v238 q-162 33 -287 158q-100 100 -133 264q-8 47 -12 128t-4 218z" />
<glyph unicode="&#xce;" horiz-adv-x="655" d="M178 0v1532h299v-1532h-299zM-72 1679l285 365h223l285 -365h-217l-180 197l-179 -197h-217z" />
<glyph unicode="&#xd6;" horiz-adv-x="1384" d="M127 766q0 260 16 346q31 164 133 264q168 168 416 168q246 0 414 -168q100 -100 133 -264q18 -96 18 -346q0 -246 -18 -346q-27 -162 -133 -264q-168 -168 -414 -168q-244 0 -416 168q-100 100 -133 264q-8 47 -12 128t-4 218zM426 766q0 -197 4 -223q12 -145 70 -207 q70 -82 192 -82q131 0 209 102q57 78 57 410v111q0 70 -4 112q-12 141 -69 207q-72 82 -193 82t-192 -82q-53 -63 -70 -207zM336 1684v270h240v-270h-240zM811 1684v270h240v-270h-240z" />
<glyph unicode="&#xdb;" horiz-adv-x="1435" d="M156 524v1008h299v-997q0 -129 70.5 -205t193.5 -76q125 0 195.5 76t70.5 205v997h297v-1008q0 -236 -162 -386t-401 -150q-238 0 -400.5 148t-162.5 388zM321 1679l285 365h223l285 -365h-217l-180 197l-179 -197h-217z" />
<glyph unicode="&#xdc;" horiz-adv-x="1435" d="M156 524v1008h299v-997q0 -129 70.5 -205t193.5 -76q125 0 195.5 76t70.5 205v997h297v-1008q0 -236 -162 -386t-401 -150q-238 0 -400.5 148t-162.5 388zM360 1684v270h240v-270h-240zM835 1684v270h240v-270h-240z" />
<glyph unicode="&#xe2;" horiz-adv-x="1146" d="M78 340q0 141 97 232.5t286 91.5h264v57q0 176 -209 176q-135 0 -215 -92l-178 174q78 88 168 121t235 33q477 0 478 -396v-737h-273v96q-109 -106 -274 -106q-188 0 -283.5 97t-95.5 253zM346 346q0 -129 162 -129q139 0 190 72q27 39 27 125v59h-221q-158 0 -158 -127z M166 1298l285 365h223l285 -365h-217l-180 197l-179 -197h-217z" />
<glyph unicode="&#xe7;" horiz-adv-x="1036" d="M100 561q0 303 168 457q129 115 334 115q225 0 371 -150l-191 -190q-82 88 -180 88t-159.5 -76t-61.5 -244q0 -172 61.5 -246.5t159.5 -74.5t180 88l191 -189q-102 -102 -240 -139v-240h-282v246q-351 96 -351 555z" />
<glyph unicode="&#xee;" horiz-adv-x="589" d="M158 0v1120h278v-1120h-278zM-97 1298l285 365h223l285 -365h-217l-180 197l-179 -197h-217z" />
<glyph unicode="&#xf6;" d="M111 561q0 297 129 434.5t344 137.5q211 0 343 -135.5t132 -436.5q0 -160 -26.5 -260t-100.5 -176q-131 -137 -348 -137q-211 0 -346 137q-70 72 -98.5 173t-28.5 263zM389 561q0 -205 66 -272q49 -49 129 -49t131 49q63 63 63 272q0 207 -63 270q-51 49 -131 50 q-80 0 -129 -50q-66 -63 -66 -270zM227 1303v270h240v-270h-240zM702 1303v270h240v-270h-240z" />
<glyph unicode="&#xfb;" horiz-adv-x="1230" d="M143 403v717h281v-678q0 -100 59 -157q49 -45 125 -45t127 45q31 25 45.5 63.5t14.5 93.5v678h280v-1120h-272v102q-111 -115 -281 -114q-166 0 -264 98q-115 114 -115 317zM213 1298l285 365h223l285 -365h-217l-180 197l-179 -197h-217z" />
<glyph unicode="&#xfc;" horiz-adv-x="1230" d="M143 403v717h281v-678q0 -100 59 -157q49 -45 125 -45t127 45q31 25 45.5 63.5t14.5 93.5v678h280v-1120h-272v102q-111 -115 -281 -114q-166 0 -264 98q-115 114 -115 317zM252 1303v270h240v-270h-240zM727 1303v270h240v-270h-240z" />
<glyph unicode="&#x11e;" horiz-adv-x="1392" d="M127 766q0 260 16 346q31 164 133 264q168 168 414 168q248 0 408 -149q133 -125 168 -342h-301q-51 225 -275 225q-117 0 -190 -82q-53 -63 -70 -207l-4 -223q0 -197 5 -249t20.5 -99t48.5 -84q72 -80 190 -80q135 0 213 86q70 76 70 205v57h-283v250h580v-223 q0 -315 -148 -467q-168 -174 -432 -174q-246 0 -414 168q-100 100 -133 264q-8 47 -12 128t-4 218zM342 1772v188h680v-188h-680z" />
<glyph unicode="&#x11f;" horiz-adv-x="1191" d="M111 592q0 178 20.5 273.5t91.5 168.5q100 98 269 99q168 0 274 -117v104h270v-1079q0 -201 -135 -333t-356 -132q-254 0 -408 148l174 176q90 -86 219 -86q117 0 177 71q51 63 51 160v115q-102 -113 -269 -113q-166 0 -266 98q-70 72 -96 191q-16 90 -16 256zM289 1315 v186h678v-186h-678zM389 592q0 -141 31 -203q39 -90 151 -90q115 0 158 96q29 72 29 197q0 131 -29 192q-39 96 -158 97q-106 0 -151 -90q-31 -64 -31 -199z" />
<glyph unicode="&#x130;" horiz-adv-x="655" d="M174 1688v276h305v-276h-305zM178 0v1532h299v-1532h-299z" />
<glyph unicode="&#x131;" horiz-adv-x="589" d="M158 0v1120h278v-1120h-278z" />
<glyph unicode="&#x15e;" horiz-adv-x="1269" d="M41 188l192 195q129 -129 371 -129q270 0 270 188q0 82 -45 127q-43 39 -137 58l-184 24q-408 55 -408 428q0 207 143.5 336t391.5 129q309 0 493 -178l-188 -188q-113 106 -313 106q-115 0 -176.5 -55t-61.5 -139q0 -63 48 -109.5t138 -60.5l183 -25q193 -27 291 -119 q119 -113 118 -325q0 -176 -107.5 -291t-287.5 -156v-244h-280v230q-131 0 -245 52t-206 146z" />
<glyph unicode="&#x15f;" horiz-adv-x="1077" d="M47 147l182 185q106 -106 299 -107q199 0 199 117q0 90 -119 102l-176 19q-328 33 -328 313q0 168 134 266q119 90 299 91q289 0 428 -132l-172 -174q-86 76 -261 76q-158 0 -157 -108q0 -82 114 -97l179 -16q332 -33 331 -330q0 -274 -307 -348v-244h-278l2 230 q-230 18 -369 157z" />
<glyph unicode="&#x2c6;" horiz-adv-x="1075" d="M141 1298l285 365h223l285 -365h-217l-180 197l-179 -197h-217z" />
<glyph unicode="&#x2da;" horiz-adv-x="1075" d="M256 1538q0 115 83 198t198 83q117 0 199.5 -82t82.5 -199t-83 -200t-199 -83q-117 0 -199 84t-82 199zM414 1538q0 -55 35.5 -91t87.5 -36q53 0 89 39t36 88q0 51 -36 88t-89 37q-51 0 -87 -37t-36 -88z" />
<glyph unicode="&#x2dc;" horiz-adv-x="1075" d="M147 1470q127 127 242 127q86 0 166 -49q63 -39 119 -39q63 0 127 64l125 -123q-127 -127 -244 -127q-80 0 -166 49q-66 39 -121 39q-63 0 -127 -63z" />
<glyph unicode="&#x2000;" horiz-adv-x="1091" />
<glyph unicode="&#x2001;" horiz-adv-x="2183" />
<glyph unicode="&#x2002;" horiz-adv-x="1091" />
<glyph unicode="&#x2003;" horiz-adv-x="2183" />
<glyph unicode="&#x2004;" horiz-adv-x="727" />
<glyph unicode="&#x2005;" horiz-adv-x="544" />
<glyph unicode="&#x2006;" horiz-adv-x="362" />
<glyph unicode="&#x2007;" horiz-adv-x="362" />
<glyph unicode="&#x2008;" horiz-adv-x="272" />
<glyph unicode="&#x2009;" horiz-adv-x="436" />
<glyph unicode="&#x200a;" horiz-adv-x="120" />
<glyph unicode="&#x2010;" horiz-adv-x="915" d="M127 483v260h661v-260h-661z" />
<glyph unicode="&#x2011;" horiz-adv-x="915" d="M127 483v260h661v-260h-661z" />
<glyph unicode="&#x2012;" horiz-adv-x="915" d="M127 483v260h661v-260h-661z" />
<glyph unicode="&#x2013;" d="M106 483v260h955v-260h-955z" />
<glyph unicode="&#x2014;" horiz-adv-x="2207" d="M127 485v271h1954v-271h-1954z" />
<glyph unicode="&#x2018;" horiz-adv-x="585" d="M145 1266v266l293 225v-491h-293z" />
<glyph unicode="&#x2019;" horiz-adv-x="585" d="M145 1042v490h293v-268z" />
<glyph unicode="&#x201a;" horiz-adv-x="581" d="M145 -223v489h293v-266z" />
<glyph unicode="&#x201c;" horiz-adv-x="1036" d="M145 1266v266l291 225v-491h-291zM598 1266v266l293 225v-491h-293z" />
<glyph unicode="&#x201d;" horiz-adv-x="1036" d="M145 1042v490h291v-268zM598 1042v490h293v-268z" />
<glyph unicode="&#x201e;" horiz-adv-x="1042" d="M145 -223v489h291v-266zM598 -223v489h293v-266z" />
<glyph unicode="&#x2026;" horiz-adv-x="1818" d="M145 0v303h306v-303h-306zM758 0v303h303v-303h-303zM1370 0v303h303v-303h-303z" />
<glyph unicode="&#x202f;" horiz-adv-x="436" />
<glyph unicode="&#x2039;" horiz-adv-x="655" d="M174 1688v276h305v-276h-305zM178 0v1532h299v-1532h-299z" />
<glyph unicode="&#x203a;" horiz-adv-x="589" d="M158 0v1120h278v-1120h-278z" />
<glyph unicode="&#x205f;" horiz-adv-x="544" />
<glyph unicode="&#x2122;" horiz-adv-x="1986" d="M96 1348v184h678v-184h-237v-736h-203v736h-238zM915 612v920h205l262 -492l263 492h204v-920h-204v543l-172 -338h-181l-172 338v-543h-205z" />
<glyph unicode="&#xe000;" horiz-adv-x="1120" d="M0 1120h1120v-1120h-1120v1120z" />
</font>
</defs>
</svg>
